/* XPM */
static char *Vega[] = {
/* columns rows colors chars-per-pixel */
"48 48 57 1 ",
"  c #1F0509",
". c #250509",
"X c #2C0509",
"o c #340509",
"O c #3B060A",
"+ c #35080B",
"@ c #38090C",
"# c #41070B",
"$ c #44080B",
"% c #4C0A0D",
"& c #540B0E",
"* c #5B0C0F",
"= c #5D0D10",
"- c #610D0F",
"; c #640E11",
": c #6B0F11",
"> c #661011",
", c #6C1012",
"< c #731213",
"1 c #7C1314",
"2 c #841516",
"3 c #8B1616",
"4 c #861618",
"5 c #8B1718",
"6 c #8D1819",
"7 c #941717",
"8 c #991717",
"9 c #901817",
"0 c #981817",
"q c #921718",
"w c #981718",
"e c #93191A",
"r c #9C1A1A",
"t c #A31B1B",
"y c #AB1D1C",
"u c #B21D1D",
"i c #BB1E1D",
"p c #AF201F",
"a c #B4201F",
"s c #B8201F",
"d c #AF1F20",
"f c #B11F20",
"g c #B42020",
"h c #BB2221",
"j c #C21F1E",
"k c #C5201F",
"l c #CC211F",
"z c #C42323",
"x c #CB2524",
"c c #D32625",
"v c #D92624",
"b c #D52827",
"n c #DB2927",
"m c #DC2A28",
"M c #E42B29",
"N c #ED2E2C",
"B c None",
/* pixels */
"BBBBBBBBBBBBBBBBBBBuyuuuuiigsBBBBBBBBBBBBBBBBBBB",
"BBBBBBBBBBBBBBBtytyyyuffgggihhshBBBBBBBBBBBBBBBB",
"BBBBBBBBBBBBBttttyyyuf90llhzzhzzszhBBBBBBBBBBBBB",
"BBBBBBBBBBBrrttttyyyy1welluzzxzzxzzzBBBBBBBBBBBB",
"BBBBBBBBBBwwwrtttyygftBBBxzzxxxzxxxxzzBBBBBBBBBB",
"BBBBBBBBBwweriu01tuuhhzzxxccccr*2tlxxxxBBBBBBBBB",
"BBBBBBBB9900yjuw19fghzzxxcbnmn*:2ilxcxxzBBBBBBBB",
"BBBBBBB333923tBBByhhzzxxbnMMMMnBBBirxnbxxBBBBBBB",
"BBBBBB2333q,,BBBpaskxs2uvNMNNNNvBBr2zmnbxxBBBBBB",
"BBBBB22323921Bttpghzzk*3jMvNNNNNnMByNMMnbxxBBBBB",
"BBBB12312399wrttpahzkn@,8xjvNNNNNNNNNNNMdbxzBBBB",
"BBB11321136ewrtypgzsriBBBByyNNNNNNNNNNNz1yxxBBBB",
"BBB11r<B2339ettyugzx6BBBBB1xNNNNNNNNNNNnxyyxzBBB",
"BB<<tt<B2233erryghzxxBBBBBBNNNNNnvMNNNNNBu4xxBBB",
"BB,<jjB1144tfjy7ghzxbzBBBBmNNNNN17y2cNNNnjjlxzBB",
"BB::33<<11ry21y2rgzxbMNNNNNNNNNe<2$:8MNNNs8zxzBB",
"B:;:,:<<12jt1BBBBgzxbmNNNNNNNNmBBBO:9zNNNMMbxzgB",
"B-;>:::<1yvy1BBBBghzbmMNNNNNNNmBBBB;9kMNNMnbxzhB",
"B;;--,,,<4MxBBBBrghzbbMNNNNNNNNzBBB1lnNNNMnbxzhB",
"**----:::<ukdBBBtpghxbmNNNNNNNNMBBBticNNNnbczhhB",
"***;<*-::<184BBettddhzBBBBMNNNNNxB;1dNNNMx:4zhgB",
"&&&92B--::<<145eetddhtBBBBzNNNNNNNNNMNNNmB&=dggt",
"&&*y2BB=;;,<<144ertddBBBBBBNNNNNNNNNNNMmbBB3rgyt",
"%%2jtBB==;::<<146ert6BBBBBBzMNNNNNNNMmmbgBBkjutr",
"$%-iyBB&*--::<116eertBBBBBBxbmmMMMmnnbbzhBBffdtr",
"$$$23B&&&**;;:<1116eeBBBBBdhxbbbbbbcxxzzhB39ttre",
"#$$%*&$%&&:j3BB<<116e6BBBBdghhhzyBNcyhhggt=,rre9",
"O###$$$%%%ffqBBB<<1166ertdddggggBBBlyrgddttrre9B",
"BOOOO##$%=bfBBBB><<<1166eerrddd6BBBcy2rdrree663B",
"BoOOOOO##rbd1BBBB>,<<11466eeereBBBBvy46ree66542B",
"BoooooOO@&bd4BBBB=>>,<<<1466664BBBNvu2666554211B",
"BBoo3*oo@@6d4hd1=&=>>,<<<<11144&-7Nvu2444<&<11BB",
"BBoot2BoooOuvjy<%%&&=;>>,,<<<11<=6xve111<B2<<<BB",
"BBooy8BooOO%*<:$%$%&&BBBBB>,,,<<><41<11<Bf2:::BB",
"BBBo&t<BoooooO#O#$$$$BBBBBO=>>>,>,,,>>,;Bu1;;BBB",
"BBBoo14:ooooooOOOO#Oo%BBBB>%&====;=;;;;&4f;==BBB",
"BBBBoO<&ooooooooOOOO&21&ot0;%&&==&&==&=&&;=*BBBB",
"BBBBoooooooooooooOOO&i81&wy%$%%%%&&%&&&&&&&BBBBB",
"BBBBBoooooo.@BBBoooOo2ir13&##$$$BBB$$%%%%%%BBBBB",
"BBBBBBXoXoo@&<BBBooooOoOoOOOOOOBBB1;$$$$$$BBBBBB",
"BBBBBBBXoXoo>3w1BooooooOoOoOOOB%:rr:OO#O#BBBBBBB",
"BBBBBBBBXXXo$ue1&ooooooooooOoOo%:7tOOoOOBBBBBBBB",
"BBBBBBBBBXXXXo#%OooooXBBBBoooooO$$oOOoBBBBBBBBBB",
"BBBBBBBBBB..XXXXoXXXo.2y1,oooooooOoooBBBBBBBBBBB",
"BBBBBBBBBBBB...XXXXXoo8y1*ooooooooooBBBBBBBBBBBB",
"BBBBBBBBBBBBBB ...XXXXXXooXoXoooooBBBBBBBBBBBBBB",
"BBBBBBBBBBBBBBBBB ....XXXXXooooBBBBBBBBBBBBBBBBB",
"BBBBBBBBBBBBBBBBBBBBBB..XXBBBBBBBBBBBBBBBBBBBBBB"
};
